<svg width="24" height="24" viewBox="0 0 24 24" fill="none" xmlns="http://www.w3.org/2000/svg">
<g clip-path="url(#clip0_310_1355)">
<path d="M12.0016 6C7.11731 6 2.81304 8.24681 0.368238 11.676C0.233862 11.8667 0.233862 12.1245 0.368238 12.3152C2.81304 15.7445 7.11731 17.9999 12.0016 17.9999C16.8858 17.9999 21.1901 15.7446 23.6349 12.3152C23.7693 12.1245 23.7693 11.8667 23.6349 11.676C21.1901 8.24673 16.8858 6 12.0016 6ZM12.0016 7.36364C14.512 7.36364 16.5349 9.43252 16.5349 12C16.5349 14.5675 14.512 16.6364 12.0016 16.6364C9.49115 16.6364 7.46824 14.5675 7.46824 12C7.46824 9.43252 9.49115 7.36364 12.0016 7.36364ZM8.51837 7.52557C7.23088 8.576 6.4017 10.19 6.4017 11.9999C6.4017 13.8099 7.23088 15.4325 8.51837 16.483C5.60584 15.7511 3.1349 14.1286 1.4933 11.9999C3.13392 9.86925 5.60584 8.2562 8.51837 7.52557ZM15.485 7.52557C18.3976 8.2564 20.8693 9.86933 22.5101 11.9999C20.8685 14.1285 18.3976 15.751 15.485 16.483C16.7725 15.4326 17.6017 13.8101 17.6017 11.9999C17.6017 10.1898 16.7725 8.57584 15.485 7.52557ZM12.0018 9.27271C10.5352 9.27271 9.33517 10.5 9.33517 12C9.33517 13.5 10.5352 14.7273 12.0018 14.7273C13.4685 14.7273 14.6685 13.5 14.6685 12C14.6685 10.5 13.4685 9.27271 12.0018 9.27271ZM12.0018 10.3636C12.8914 10.3636 13.6018 11.0902 13.6018 12C13.6018 12.9098 12.8914 13.6364 12.0018 13.6364C11.1123 13.6364 10.4018 12.9098 10.4018 12C10.4018 11.0902 11.1123 10.3636 12.0018 10.3636Z" fill="#CBCBCB"/>
</g>
<defs>
<clipPath id="clip0_310_1355">
<rect width="24" height="12" fill="white" transform="translate(0 6)"/>
</clipPath>
</defs>
</svg>
